0 On ch=1 n=36 v=80
120 Off ch=1 n=36 v=64
240 On ch=1 n=42 v=80
360 Off ch=1 n=42 v=64
720 On ch=1 n=42 v=80
840 Off ch=1 n=42 v=64
1200 On ch=1 n=42 v=80
1320 Off ch=1 n=42 v=64
1680 On ch=1 n=42 v=80
1800 Off ch=1 n=42 v=64
1920 On ch=1 n=36 v=80
2040 Off ch=1 n=36 v=64
2160 On ch=1 n=42 v=80
2280 Off ch=1 n=42 v=64
2640 On ch=1 n=42 v=80
2760 Off ch=1 n=42 v=64
2880 On ch=1 n=39 v=80
3000 Off ch=1 n=39 v=64
3120 On ch=1 n=42 v=80
3240 Off ch=1 n=42 v=64
3600 On ch=1 n=42 v=80
3720 Off ch=1 n=42 v=64
3840 On ch=1 n=36 v=80
3960 Off ch=1 n=36 v=64
4080 On ch=1 n=42 v=80
4200 Off ch=1 n=42 v=64
4560 On ch=1 n=42 v=80
4680 Off ch=1 n=42 v=64
5040 On ch=1 n=42 v=80
5160 Off ch=1 n=42 v=64
5520 On ch=1 n=42 v=80
5640 Off ch=1 n=42 v=64
5760 On ch=1 n=36 v=80
5880 Off ch=1 n=36 v=64
6000 On ch=1 n=42 v=80
6120 Off ch=1 n=42 v=64
6480 On ch=1 n=42 v=80
6600 Off ch=1 n=42 v=64
6720 On ch=1 n=39 v=80
6840 Off ch=1 n=39 v=64
6960 On ch=1 n=42 v=80
7080 Off ch=1 n=42 v=64
7440 On ch=1 n=42 v=80
7560 Off ch=1 n=42 v=64