0 On ch=1 n=36 v=127
0 On ch=1 n=38 v=80
0 On ch=1 n=39 v=120
0 On ch=1 n=40 v=120
0 On ch=1 n=41 v=100
0 On ch=1 n=42 v=120
0 On ch=1 n=43 v=100
0 On ch=1 n=44 v=127
0 On ch=1 n=48 v=114
1 On ch=1 n=45 v=127
24 Off ch=1 n=44 v=0
24 On ch=1 n=44 v=120
24 Off ch=1 n=48 v=0
37 Off ch=1 n=45 v=0
37 On ch=1 n=45 v=117
48 Off ch=1 n=36 v=0
48 Off ch=1 n=38 v=0
48 On ch=1 n=38 v=84
48 Off ch=1 n=42 v=0
48 On ch=1 n=48 v=30
49 Off ch=1 n=45 v=0
49 On ch=1 n=45 v=113
63 Off ch=1 n=45 v=0
72 On ch=1 n=42 v=114
72 Off ch=1 n=44 v=0
72 Off ch=1 n=48 v=0
72 On ch=1 n=44 v=120
73 On ch=1 n=45 v=127
84 Off ch=1 n=45 v=0
96 On ch=1 n=37 v=127
96 Off ch=1 n=38 v=0
96 Off ch=1 n=41 v=0
96 On ch=1 n=41 v=120
96 On ch=1 n=48 v=97
120 Off ch=1 n=42 v=0
120 Off ch=1 n=48 v=0
120 On ch=1 n=45 v=102
132 Off ch=1 n=45 v=0
143 Off ch=1 n=39 v=0
143 On ch=1 n=39 v=115
143 Off ch=1 n=40 v=0
143 On ch=1 n=40 v=115
144 Off ch=1 n=37 v=0
144 On ch=1 n=38 v=84
144 On ch=1 n=42 v=120
144 Off ch=1 n=44 v=0
144 On ch=1 n=44 v=127
144 On ch=1 n=48 v=109
168 Off ch=1 n=48 v=0
169 On ch=1 n=45 v=123
181 Off ch=1 n=45 v=0
192 Off ch=1 n=38 v=0
192 On ch=1 n=38 v=80
192 Off ch=1 n=41 v=0
192 Off ch=1 n=42 v=0
192 On ch=1 n=48 v=61
216 Off ch=1 n=39 v=0
216 On ch=1 n=39 v=100
216 Off ch=1 n=40 v=0
216 On ch=1 n=40 v=100
216 On ch=1 n=42 v=114
216 Off ch=1 n=48 v=0
216 On ch=1 n=45 v=101
228 Off ch=1 n=45 v=0
240 Off ch=1 n=38 v=0
240 On ch=1 n=38 v=84
240 On ch=1 n=48 v=98
264 Off ch=1 n=42 v=0
264 Off ch=1 n=48 v=0
270 On ch=1 n=41 v=100
276 On ch=1 n=36 v=105
286 On ch=1 n=45 v=127
288 Off ch=1 n=36 v=0
288 On ch=1 n=36 v=110
288 Off ch=1 n=38 v=0
288 Off ch=1 n=39 v=0
288 On ch=1 n=39 v=115
288 Off ch=1 n=40 v=0
288 On ch=1 n=40 v=115
288 Off ch=1 n=41 v=0
288 On ch=1 n=41 v=120
288 On ch=1 n=42 v=123
288 On ch=1 n=48 v=116
312 Off ch=1 n=48 v=0
318 Off ch=1 n=41 v=0
318 On ch=1 n=41 v=110
324 Off ch=1 n=36 v=0
324 On ch=1 n=36 v=120
336 On ch=1 n=38 v=84
336 On ch=1 n=48 v=104
360 Off ch=1 n=36 v=0
360 Off ch=1 n=41 v=0
360 Off ch=1 n=48 v=0
360 Off ch=1 n=42 v=0
384 On ch=1 n=36 v=127
384 Off ch=1 n=38 v=0
384 On ch=1 n=38 v=80
384 Off ch=1 n=39 v=0
384 On ch=1 n=39 v=120
384 Off ch=1 n=40 v=0
384 On ch=1 n=40 v=120
384 On ch=1 n=41 v=100
384 On ch=1 n=42 v=120
384 Off ch=1 n=43 v=64
384 On ch=1 n=43 v=90
384 Off ch=1 n=44 v=0
384 On ch=1 n=44 v=127
384 Off ch=1 n=45 v=0
384 On ch=1 n=45 v=105
384 On ch=1 n=48 v=114
408 Off ch=1 n=44 v=0
408 On ch=1 n=44 v=120
408 Off ch=1 n=48 v=0
431 On ch=1 n=48 v=60
432 Off ch=1 n=38 v=0
432 On ch=1 n=38 v=84
432 Off ch=1 n=42 v=0
433 Off ch=1 n=36 v=0
456 On ch=1 n=42 v=114
456 Off ch=1 n=44 v=0
456 On ch=1 n=44 v=120
456 Off ch=1 n=48 v=0
480 On ch=1 n=37 v=127
480 Off ch=1 n=38 v=0
480 Off ch=1 n=41 v=0
480 On ch=1 n=41 v=120
480 On ch=1 n=48 v=83
504 Off ch=1 n=42 v=0
504 Off ch=1 n=48 v=0
526 Off ch=1 n=37 v=0
527 Off ch=1 n=39 v=0
527 On ch=1 n=39 v=115
527 Off ch=1 n=40 v=0
527 On ch=1 n=40 v=115
528 On ch=1 n=38 v=84
528 On ch=1 n=42 v=120
528 Off ch=1 n=44 v=0
528 On ch=1 n=44 v=127
528 On ch=1 n=48 v=119
528 Off ch=1 n=45 v=0
528 On ch=1 n=45 v=116
552 Off ch=1 n=48 v=0
576 Off ch=1 n=38 v=0
576 On ch=1 n=38 v=80
576 Off ch=1 n=41 v=0
576 Off ch=1 n=42 v=0
576 On ch=1 n=48 v=73
600 On ch=1 n=36 v=100
600 Off ch=1 n=39 v=0
600 On ch=1 n=39 v=100
600 Off ch=1 n=40 v=0
600 On ch=1 n=40 v=100
600 On ch=1 n=42 v=114
600 Off ch=1 n=48 v=0
600 Off ch=1 n=45 v=0
621 Off ch=1 n=36 v=0
623 On ch=1 n=48 v=71
624 Off ch=1 n=38 v=0
624 On ch=1 n=38 v=84
648 Off ch=1 n=42 v=0
648 Off ch=1 n=48 v=0
660 On ch=1 n=36 v=95
672 Off ch=1 n=36 v=0
672 On ch=1 n=36 v=110
672 Off ch=1 n=38 v=0
672 Off ch=1 n=39 v=0
672 On ch=1 n=39 v=115
672 Off ch=1 n=40 v=0
672 On ch=1 n=40 v=115
672 On ch=1 n=41 v=120
672 On ch=1 n=42 v=105
672 Off ch=1 n=44 v=0
672 On ch=1 n=44 v=120
672 On ch=1 n=48 v=114
672 On ch=1 n=45 v=127
696 Off ch=1 n=42 v=0
696 On ch=1 n=42 v=110
696 Off ch=1 n=44 v=0
696 On ch=1 n=44 v=120
696 Off ch=1 n=48 v=0
702 Off ch=1 n=41 v=0
720 Off ch=1 n=36 v=0
720 On ch=1 n=36 v=120
720 On ch=1 n=38 v=84
720 Off ch=1 n=42 v=0
720 On ch=1 n=42 v=116
720 Off ch=1 n=44 v=0
720 On ch=1 n=44 v=120
720 On ch=1 n=48 v=110
744 Off ch=1 n=36 v=0
744 Off ch=1 n=42 v=0
744 On ch=1 n=42 v=120
744 Off ch=1 n=44 v=0
744 On ch=1 n=44 v=127
744 Off ch=1 n=48 v=0
744 Off ch=1 n=45 v=0
768 On ch=1 n=36 v=127
768 Off ch=1 n=38 v=0
768 On ch=1 n=38 v=80
768 Off ch=1 n=39 v=0
768 On ch=1 n=39 v=120
768 Off ch=1 n=40 v=0
768 On ch=1 n=40 v=120
768 On ch=1 n=41 v=100
768 Off ch=1 n=42 v=0
768 On ch=1 n=42 v=120
768 Off ch=1 n=43 v=64
768 On ch=1 n=43 v=100
768 On ch=1 n=48 v=114
769 On ch=1 n=45 v=127
792 Off ch=1 n=48 v=0
805 Off ch=1 n=45 v=0
805 On ch=1 n=45 v=117
816 Off ch=1 n=36 v=0
816 Off ch=1 n=38 v=0
816 On ch=1 n=38 v=84
816 Off ch=1 n=42 v=0
816 Off ch=1 n=44 v=0
816 On ch=1 n=44 v=120
816 On ch=1 n=48 v=30
817 Off ch=1 n=45 v=0
817 On ch=1 n=45 v=113
831 Off ch=1 n=45 v=0
840 On ch=1 n=42 v=114
840 Off ch=1 n=44 v=0
840 Off ch=1 n=48 v=0
841 On ch=1 n=45 v=127
852 Off ch=1 n=45 v=0
864 On ch=1 n=37 v=127
864 Off ch=1 n=38 v=0
864 Off ch=1 n=41 v=0
864 On ch=1 n=41 v=120
864 On ch=1 n=44 v=127
864 On ch=1 n=48 v=97
888 Off ch=1 n=42 v=0
888 Off ch=1 n=48 v=0
888 On ch=1 n=45 v=102
900 Off ch=1 n=45 v=0
911 Off ch=1 n=39 v=0
911 On ch=1 n=39 v=115
911 Off ch=1 n=40 v=0
911 On ch=1 n=40 v=115
912 Off ch=1 n=37 v=0
912 On ch=1 n=38 v=84
912 On ch=1 n=42 v=120
912 On ch=1 n=48 v=109
936 Off ch=1 n=48 v=0
937 On ch=1 n=45 v=123
949 Off ch=1 n=45 v=0
960 Off ch=1 n=38 v=0
960 On ch=1 n=38 v=80
960 Off ch=1 n=41 v=0
960 Off ch=1 n=42 v=0
960 On ch=1 n=48 v=61
984 Off ch=1 n=39 v=0
984 On ch=1 n=39 v=100
984 Off ch=1 n=40 v=0
984 On ch=1 n=40 v=100
984 On ch=1 n=42 v=114
984 Off ch=1 n=48 v=0
984 On ch=1 n=45 v=101
996 Off ch=1 n=45 v=0
1008 Off ch=1 n=38 v=0
1008 On ch=1 n=38 v=84
1008 On ch=1 n=48 v=98
1032 Off ch=1 n=42 v=0
1032 Off ch=1 n=48 v=0
1038 On ch=1 n=41 v=100
1044 On ch=1 n=36 v=105
1054 On ch=1 n=45 v=127
1056 Off ch=1 n=36 v=0
1056 On ch=1 n=36 v=110
1056 Off ch=1 n=38 v=0
1056 Off ch=1 n=39 v=0
1056 On ch=1 n=39 v=115
1056 Off ch=1 n=40 v=0
1056 On ch=1 n=40 v=115
1056 Off ch=1 n=41 v=0
1056 On ch=1 n=41 v=120
1056 On ch=1 n=42 v=123
1056 Off ch=1 n=44 v=0
1056 On ch=1 n=44 v=120
1056 On ch=1 n=48 v=116
1080 Off ch=1 n=44 v=0
1080 On ch=1 n=44 v=120
1080 Off ch=1 n=48 v=0
1086 Off ch=1 n=41 v=0
1086 On ch=1 n=41 v=110
1092 Off ch=1 n=36 v=0
1092 On ch=1 n=36 v=120
1103 Off ch=1 n=40 v=0
1103 On ch=1 n=40 v=115
1104 On ch=1 n=38 v=84
1104 Off ch=1 n=44 v=0
1104 On ch=1 n=44 v=120
1104 On ch=1 n=48 v=104
1128 Off ch=1 n=36 v=0
1128 Off ch=1 n=41 v=0
1128 Off ch=1 n=48 v=0
1128 Off ch=1 n=42 v=0
1152 On ch=1 n=36 v=127
1152 Off ch=1 n=38 v=0
1152 On ch=1 n=38 v=80
1152 Off ch=1 n=39 v=0
1152 On ch=1 n=39 v=120
1152 Off ch=1 n=40 v=0
1152 On ch=1 n=40 v=120
1152 On ch=1 n=41 v=100
1152 On ch=1 n=42 v=120
1152 Off ch=1 n=43 v=64
1152 On ch=1 n=43 v=90
1152 Off ch=1 n=44 v=0
1152 On ch=1 n=44 v=127
1152 On ch=1 n=48 v=114
1152 Off ch=1 n=45 v=0
1153 On ch=1 n=45 v=126
1176 Off ch=1 n=48 v=0
1199 On ch=1 n=48 v=60
1200 Off ch=1 n=38 v=0
1200 On ch=1 n=38 v=84
1200 Off ch=1 n=42 v=0
1201 Off ch=1 n=36 v=0
1224 On ch=1 n=42 v=114
1224 Off ch=1 n=48 v=0
1248 On ch=1 n=37 v=127
1248 Off ch=1 n=38 v=0
1248 Off ch=1 n=41 v=0
1248 On ch=1 n=41 v=120
1248 On ch=1 n=48 v=83
1272 Off ch=1 n=42 v=0
1272 Off ch=1 n=48 v=0
1294 Off ch=1 n=37 v=0
1295 Off ch=1 n=39 v=0
1295 On ch=1 n=39 v=115
1295 Off ch=1 n=40 v=0
1295 On ch=1 n=40 v=115
1296 On ch=1 n=38 v=84
1296 On ch=1 n=42 v=120
1296 On ch=1 n=48 v=119
1320 Off ch=1 n=48 v=0
1344 Off ch=1 n=38 v=0
1344 On ch=1 n=38 v=80
1344 Off ch=1 n=41 v=0
1344 Off ch=1 n=42 v=0
1344 On ch=1 n=48 v=73
1368 On ch=1 n=36 v=100
1368 Off ch=1 n=39 v=0
1368 On ch=1 n=39 v=100
1368 Off ch=1 n=40 v=0
1368 On ch=1 n=40 v=100
1368 On ch=1 n=42 v=114
1368 Off ch=1 n=48 v=0
1389 Off ch=1 n=36 v=0
1391 On ch=1 n=48 v=71
1392 Off ch=1 n=38 v=0
1392 On ch=1 n=38 v=84
1416 Off ch=1 n=42 v=0
1416 Off ch=1 n=48 v=0
1428 On ch=1 n=36 v=95
1440 Off ch=1 n=36 v=0
1440 On ch=1 n=36 v=110
1440 Off ch=1 n=38 v=0
1440 Off ch=1 n=39 v=0
1440 On ch=1 n=39 v=115
1440 Off ch=1 n=40 v=0
1440 On ch=1 n=40 v=115
1440 On ch=1 n=41 v=120
1440 On ch=1 n=42 v=105
1440 On ch=1 n=48 v=114
1464 Off ch=1 n=42 v=0
1464 On ch=1 n=42 v=110
1464 Off ch=1 n=48 v=0
1470 Off ch=1 n=41 v=0
1487 Off ch=1 n=40 v=0
1487 On ch=1 n=40 v=115
1488 Off ch=1 n=36 v=0
1488 On ch=1 n=36 v=120
1488 On ch=1 n=38 v=84
1488 Off ch=1 n=42 v=0
1488 On ch=1 n=42 v=116
1488 On ch=1 n=48 v=110
1489 Off ch=1 n=45 v=0
1512 Off ch=1 n=36 v=0
1512 Off ch=1 n=42 v=0
1512 On ch=1 n=42 v=120
1512 Off ch=1 n=48 v=0
1536 Off ch=1 n=38 v=0
1536 Off ch=1 n=39 v=0
1536 Off ch=1 n=40 v=0
1536 Off ch=1 n=42 v=0
1536 Off ch=1 n=43 v=64
1536 Off ch=1 n=44 v=0